<svg width="90" height="90" viewBox="0 0 90 90" fill="none" xmlns="http://www.w3.org/2000/svg">
<rect width="90" height="90" rx="10" fill="#805AD5"/>
<g clip-path="url(#clip0_6277_2)">
<path d="M61.6896 28.3359C61.3421 27.9751 60.7943 27.8959 60.3609 28.1423L48.2263 34.9686L49.313 29.5392C49.4076 29.0619 49.181 28.5823 48.7542 28.3535C48.3275 28.1269 47.7995 28.1995 47.4563 28.5449L31.9712 44.03C31.9426 44.052 31.9162 44.0762 31.892 44.1026C30.0287 45.9945 29.0013 48.4804 29.0013 51.1004C29.0013 56.5584 33.4429 61 38.9009 61C41.5232 61 44.0091 59.9726 45.8988 58.1115C45.9274 58.0829 45.9516 58.0543 45.978 58.0235L59.1246 44.8791C59.4546 44.5491 59.5403 44.0454 59.338 43.6252C59.1378 43.205 58.689 42.9674 58.2248 43.0092L53.4422 43.5394L61.8392 29.6712C62.0988 29.2422 62.0394 28.6945 61.6896 28.3359ZM38.9009 57.7001C35.2557 57.7001 32.3012 54.7457 32.3012 51.1004C32.3012 47.4552 35.2557 44.5007 38.9009 44.5007C42.5461 44.5007 45.5006 47.4552 45.5006 51.1004C45.5006 54.7457 42.5461 57.7001 38.9009 57.7001Z" fill="#EDF2F7"/>
</g>
<defs>
<clipPath id="clip0_6277_2">
<rect width="33" height="33" fill="white" transform="translate(29 28)"/>
</clipPath>
</defs>
</svg>
